<svg version="1.1" id="Layer_1" xmlns="http://www.w3.org/2000/svg" xmlns:xlink="http://www.w3.org/1999/xlink" x="0px" y="0px"
	 width="100%" viewBox="0 0 1500 500" enable-background="new 0 0 1500 500" xml:space="preserve">
<path fill="#FFFFFF" opacity="1.000000" stroke="none" 
	d="
M964.000000,501.000000 
	C642.706726,501.000000 321.913452,501.000000 1.060095,501.000000 
	C1.060095,334.394226 1.060095,167.788422 1.060095,1.091313 
	C500.876709,1.091313 1000.753418,1.091313 1500.815063,1.091313 
	C1500.815063,167.666504 1500.815063,334.333221 1500.815063,501.000000 
	C1322.121582,501.000000 1143.310791,501.000000 964.000000,501.000000 
M450.990906,76.767250 
	C450.871948,72.354477 447.453033,74.074738 445.426941,74.072998 
	C349.138031,73.989998 252.849030,73.999298 156.560043,74.010803 
	C154.803879,74.011009 153.047745,74.164017 151.352554,74.242889 
	C151.352554,94.407257 151.352554,113.978828 151.352554,133.574371 
	C251.367783,133.574371 351.030457,133.574371 450.998199,133.574371 
	C450.998199,114.673759 450.998199,96.196648 450.990906,76.767250 
M373.500000,314.000305 
	C299.431274,314.000305 225.362518,314.000305 151.302094,314.000305 
	C151.302094,334.293915 151.302094,354.019348 151.302094,373.716492 
	C251.304474,373.716492 351.004822,373.716492 450.698029,373.716492 
	C450.698029,353.706268 450.698029,333.980804 450.698029,314.000305 
	C425.098114,314.000305 399.799072,314.000305 373.500000,314.000305 
M422.500000,293.999664 
	C431.925140,293.999664 441.350281,293.999664 450.604370,293.999664 
	C450.604370,273.581940 450.604370,253.858978 450.604370,234.258301 
	C350.611725,234.258301 251.014587,234.258301 151.307343,234.258301 
	C151.307343,254.238968 151.307343,273.960358 151.307343,293.999664 
	C241.575912,293.999664 331.537964,293.999664 422.500000,293.999664 
M450.999603,207.405029 
	C450.999603,189.670929 450.999603,171.936844 450.999603,154.257568 
	C350.624115,154.257568 251.073074,154.257568 151.329605,154.257568 
	C151.329605,174.218231 151.329605,193.920609 151.329605,213.648346 
	C251.327530,213.648346 350.995941,213.648346 450.999573,213.648346 
	C450.999573,211.661819 450.999573,210.018051 450.999603,207.405029 
M1148.153687,160.612350 
	C1147.231445,165.437195 1146.309082,170.262039 1145.386841,175.086899 
	C1145.027954,175.014618 1144.669189,174.942352 1144.310425,174.870071 
	C1139.880615,155.864746 1135.450806,136.859421 1131.032837,117.904793 
	C1125.707764,117.904793 1121.082886,117.904793 1116.052612,117.904793 
	C1111.559326,137.235947 1107.104248,156.402496 1102.649170,175.569061 
	C1102.336670,175.560806 1102.024170,175.552567 1101.711670,175.544327 
	C1098.051025,156.384918 1094.390259,137.225510 1090.737915,118.109451 
	C1084.636108,118.109451 1079.021851,118.109451 1073.112061,118.109451 
	C1079.424805,146.559967 1085.673706,174.723068 1091.895508,202.763809 
	C1098.140259,202.763809 1103.922607,202.763809 1109.770752,202.763809 
	C1114.250610,184.431641 1118.678955,166.310150 1123.107422,148.188660 
	C1123.390503,148.199692 1123.673584,148.210724 1123.956787,148.221756 
	C1128.417114,166.488739 1132.877441,184.755737 1137.286255,202.811661 
	C1143.587769,202.811661 1149.208374,202.811661 1155.151855,202.811661 
	C1161.394897,174.572388 1167.611938,146.450195 1173.882690,118.085815 
	C1167.748779,118.085815 1162.137573,118.085815 1156.291016,118.085815 
	C1153.646729,132.094650 1151.032471,145.944382 1148.153687,160.612350 
M770.290588,154.506149 
	C770.290588,152.661804 770.290588,150.817474 770.290588,147.541962 
	C771.939453,150.022858 772.776123,151.192474 773.521973,152.417358 
	C783.110474,168.165207 792.664368,183.934235 802.304810,199.650208 
	C803.097229,200.941925 804.399719,202.768829 805.559937,202.841934 
	C810.961548,203.182114 816.396545,202.992615 821.711060,202.992615 
	C821.711060,174.280823 821.711060,146.217316 821.711060,118.186508 
	C815.845947,118.186508 810.277832,118.186508 804.055054,118.186508 
	C804.055054,136.255188 804.055054,154.023972 804.055054,171.792755 
	C792.950562,155.022995 782.728333,138.140244 772.395996,121.325142 
	C771.546692,119.943039 770.012695,118.137634 768.686829,118.041206 
	C763.462463,117.661224 758.194214,117.885429 752.910522,117.885429 
	C752.910522,146.603180 752.910522,174.674088 752.910522,202.737854 
	C758.771606,202.737854 764.349854,202.737854 770.204529,202.737854 
	C770.204529,186.683960 770.204529,170.894958 770.290588,154.506149 
M523.508179,203.002701 
	C533.470032,202.630341 543.564575,203.145126 553.362732,201.678864 
	C568.268372,199.448318 576.094299,185.864151 572.038818,171.537369 
	C570.279785,165.323166 565.734009,161.807785 560.614136,159.164520 
	C563.101379,156.784042 565.765381,154.924622 567.530457,152.429352 
	C576.701660,139.463913 569.109680,121.859154 552.176270,119.382027 
	C538.330872,117.356636 524.105774,117.926727 509.859772,117.338326 
	C509.859772,146.492630 509.859772,174.585129 509.859772,203.002686 
	C514.225708,203.002686 518.369568,203.002686 523.508179,203.002701 
M938.464172,171.980377 
	C941.126099,171.947327 943.819519,172.159744 946.442322,171.822510 
	C950.184265,171.341385 951.983459,172.914902 953.531433,176.259109 
	C957.223694,184.236084 961.349304,192.016357 965.454285,199.794556 
	C966.129211,201.073502 967.541199,202.787033 968.693298,202.851227 
	C974.363525,203.167191 980.060913,202.994797 986.442871,202.994797 
	C979.940918,190.605286 973.888367,179.072098 967.828003,167.524002 
	C968.590393,166.993912 968.975525,166.691788 969.391907,166.441589 
	C979.961792,160.090164 984.501465,150.728836 982.563599,139.266266 
	C980.617371,127.754501 974.065613,120.310196 961.231201,119.098495 
	C947.613708,117.812866 933.780640,118.809616 919.838623,118.809616 
	C919.838623,146.439529 919.838623,174.517899 919.838623,202.799774 
	C925.651062,202.799774 931.259888,202.799774 937.594604,202.799774 
	C937.594604,192.643768 937.594604,182.571121 938.464172,171.980377 
M1276.318848,142.386368 
	C1276.318848,134.321732 1276.318848,126.257088 1276.318848,118.134941 
	C1270.197510,118.134941 1264.604492,118.134941 1258.851318,118.134941 
	C1258.851318,146.485107 1258.851318,174.575180 1258.851318,202.795090 
	C1264.677856,202.795090 1270.279907,202.795090 1276.287476,202.795090 
	C1276.287476,200.788300 1276.285767,198.981827 1276.287720,197.175354 
	C1276.297852,188.239929 1276.207031,179.301910 1276.432739,170.371872 
	C1276.465454,169.080338 1277.992798,166.743927 1278.874390,166.721878 
	C1289.185059,166.463867 1299.504395,166.556488 1310.411621,166.556488 
	C1310.411621,179.032333 1310.411621,190.912231 1310.411621,202.699524 
	C1316.597900,202.699524 1322.179565,202.699524 1327.734619,202.699524 
	C1327.734619,174.329391 1327.734619,146.266418 1327.734619,118.155762 
	C1321.890503,118.155762 1316.320312,118.155762 1310.292725,118.155762 
	C1310.292725,129.502029 1310.292725,140.577805 1310.292725,151.879456 
	C1298.743652,151.879456 1287.655273,151.879456 1276.338745,151.879456 
	C1276.338745,148.916168 1276.338745,146.132980 1276.318848,142.386368 
M875.737488,171.126328 
	C879.511108,171.126328 883.284729,171.126328 887.310059,171.126328 
	C887.310059,175.595154 887.499817,179.432877 887.211792,183.234406 
	C887.104431,184.652191 886.234436,186.488953 885.110657,187.277603 
	C876.129517,193.580368 861.098633,189.895294 856.895447,179.717575 
	C851.494446,166.639252 851.710266,153.082916 857.047119,139.942673 
	C859.824280,133.104935 866.007507,130.328796 874.356018,131.021439 
	C881.103699,131.581284 884.962524,134.951416 887.228577,142.223480 
	C887.513794,143.138687 887.924866,144.014725 888.218628,144.759460 
	C893.946777,144.759460 899.393066,144.759460 906.006531,144.759460 
	C903.805908,139.280106 902.272339,134.193283 899.823792,129.593521 
	C891.125916,113.253784 854.336914,110.220978 842.118286,131.696381 
	C832.777100,148.114243 832.722961,165.829453 839.277222,182.734711 
	C848.355164,206.149033 885.185364,212.252380 903.070557,194.118088 
	C904.276733,192.895050 904.985596,190.670212 905.023499,188.892029 
	C905.218750,179.746765 905.137146,170.595154 905.097717,161.445984 
	C905.093079,160.364639 904.754456,159.284760 904.605591,158.410126 
	C893.467102,158.410126 882.717346,158.410126 871.633423,158.410126 
	C871.633423,162.012177 871.401733,165.349213 871.779236,168.615875 
	C871.887939,169.556793 873.751709,170.294876 875.737488,171.126328 
M998.640991,134.197220 
	C991.826782,147.060593 991.767334,160.782166 994.230835,174.548508 
	C997.423401,192.388992 1011.080688,203.821213 1028.579712,204.123764 
	C1046.575928,204.434921 1060.340942,194.198792 1063.797729,176.032013 
	C1065.563354,166.752808 1065.533447,156.821457 1064.486328,147.387894 
	C1062.774658,131.968552 1051.389893,120.271866 1037.214722,117.267845 
	C1021.865479,114.015015 1007.698547,120.073250 998.640991,134.197220 
M684.946655,121.370758 
	C675.750671,127.016922 669.862610,135.390823 668.516418,145.799454 
	C667.295898,155.236893 666.993591,165.123062 668.389648,174.498184 
	C671.055115,192.398270 685.058716,203.810898 702.550964,204.123688 
	C720.539734,204.445343 734.261780,194.190308 737.816467,176.063095 
	C739.541687,167.265427 739.682556,157.842010 738.731873,148.894043 
	C735.923950,122.464180 709.218262,108.756676 684.946655,121.370758 
M640.671204,198.246964 
	C644.690002,193.268112 650.066956,188.863968 652.464233,183.198929 
	C658.784546,168.263535 658.740662,152.623413 652.551025,137.585876 
	C647.230591,124.660004 637.003601,117.612541 622.898254,116.781853 
	C608.995728,115.963112 597.851074,120.998230 590.358337,133.023270 
	C583.677979,143.744446 583.260132,155.758347 584.193237,167.773880 
	C586.562439,198.282745 613.858398,213.268738 640.671204,198.246964 
M1197.416626,132.102829 
	C1199.846069,132.102829 1202.275513,132.102829 1205.161133,132.102829 
	C1205.161133,156.083664 1205.161133,179.433609 1205.161133,202.770874 
	C1211.228394,202.770874 1216.824707,202.770874 1222.959961,202.770874 
	C1222.959961,179.172180 1222.959961,155.800705 1222.959961,131.906830 
	C1231.867920,131.906830 1240.242798,131.906830 1248.562622,131.906830 
	C1248.562622,126.963356 1248.562622,122.557510 1248.562622,118.118073 
	C1225.373291,118.118073 1202.505005,118.118073 1179.662842,118.118073 
	C1179.662842,123.016891 1179.662842,127.417160 1179.662842,132.032104 
	C1185.486328,132.032104 1190.963257,132.032104 1197.416626,132.102829 
z"/>
<path fill="#A3A3DC" opacity="1.000000" stroke="none" 
	d="
M450.994568,77.243393 
	C450.998199,96.196648 450.998199,114.673759 450.998199,133.574371 
	C351.030457,133.574371 251.367783,133.574371 151.352554,133.574371 
	C151.352554,113.978828 151.352554,94.407257 151.352554,74.242889 
	C153.047745,74.164017 154.803879,74.011009 156.560043,74.010803 
	C252.849030,73.999298 349.138031,73.989998 445.426941,74.072998 
	C447.453033,74.074738 450.871948,72.354477 450.994568,77.243393 
z"/>
<path fill="#191BA9" opacity="1.000000" stroke="none" 
	d="
M374.000000,314.000305 
	C399.799072,314.000305 425.098114,314.000305 450.698029,314.000305 
	C450.698029,333.980804 450.698029,353.706268 450.698029,373.716492 
	C351.004822,373.716492 251.304474,373.716492 151.302094,373.716492 
	C151.302094,354.019348 151.302094,334.293915 151.302094,314.000305 
	C225.362518,314.000305 299.431274,314.000305 374.000000,314.000305 
z"/>
<path fill="#4748BA" opacity="1.000000" stroke="none" 
	d="
M422.000000,293.999664 
	C331.537964,293.999664 241.575912,293.999664 151.307343,293.999664 
	C151.307343,273.960358 151.307343,254.238968 151.307343,234.258301 
	C251.014587,234.258301 350.611725,234.258301 450.604370,234.258301 
	C450.604370,253.858978 450.604370,273.581940 450.604370,293.999664 
	C441.350281,293.999664 431.925140,293.999664 422.000000,293.999664 
z"/>
<path fill="#7576CB" opacity="1.000000" stroke="none" 
	d="
M450.999573,207.889664 
	C450.999573,210.018051 450.999573,211.661819 450.999573,213.648346 
	C350.995941,213.648346 251.327530,213.648346 151.329605,213.648346 
	C151.329605,193.920609 151.329605,174.218231 151.329605,154.257568 
	C251.073074,154.257568 350.624115,154.257568 450.999603,154.257568 
	C450.999603,171.936844 450.999603,189.670929 450.999573,207.889664 
z"/>
<path fill="#1C1EAA" opacity="1.000000" stroke="none" 
	d="
M1148.285889,160.203217 
	C1151.032471,145.944382 1153.646729,132.094650 1156.291016,118.085815 
	C1162.137573,118.085815 1167.748779,118.085815 1173.882690,118.085815 
	C1167.611938,146.450195 1161.394897,174.572388 1155.151855,202.811661 
	C1149.208374,202.811661 1143.587769,202.811661 1137.286255,202.811661 
	C1132.877441,184.755737 1128.417114,166.488739 1123.956787,148.221756 
	C1123.673584,148.210724 1123.390503,148.199692 1123.107422,148.188660 
	C1118.678955,166.310150 1114.250610,184.431641 1109.770752,202.763809 
	C1103.922607,202.763809 1098.140259,202.763809 1091.895508,202.763809 
	C1085.673706,174.723068 1079.424805,146.559967 1073.112061,118.109451 
	C1079.021851,118.109451 1084.636108,118.109451 1090.737915,118.109451 
	C1094.390259,137.225510 1098.051025,156.384918 1101.711670,175.544327 
	C1102.024170,175.552567 1102.336670,175.560806 1102.649170,175.569061 
	C1107.104248,156.402496 1111.559326,137.235947 1116.052612,117.904793 
	C1121.082886,117.904793 1125.707764,117.904793 1131.032837,117.904793 
	C1135.450806,136.859421 1139.880615,155.864746 1144.310425,174.870071 
	C1144.669189,174.942352 1145.027954,175.014618 1145.386841,175.086899 
	C1146.309082,170.262039 1147.231445,165.437195 1148.285889,160.203217 
z"/>
<path fill="#1B1DAA" opacity="1.000000" stroke="none" 
	d="
M770.247559,154.806061 
	C770.204529,170.894958 770.204529,186.683960 770.204529,202.737854 
	C764.349854,202.737854 758.771606,202.737854 752.910522,202.737854 
	C752.910522,174.674088 752.910522,146.603180 752.910522,117.885429 
	C758.194214,117.885429 763.462463,117.661224 768.686829,118.041206 
	C770.012695,118.137634 771.546692,119.943039 772.395996,121.325142 
	C782.728333,138.140244 792.950562,155.022995 804.055054,171.792755 
	C804.055054,154.023972 804.055054,136.255188 804.055054,118.186508 
	C810.277832,118.186508 815.845947,118.186508 821.711060,118.186508 
	C821.711060,146.217316 821.711060,174.280823 821.711060,202.992615 
	C816.396545,202.992615 810.961548,203.182114 805.559937,202.841934 
	C804.399719,202.768829 803.097229,200.941925 802.304810,199.650208 
	C792.664368,183.934235 783.110474,168.165207 773.521973,152.417358 
	C772.776123,151.192474 771.939453,150.022858 770.290588,147.541962 
	C770.290588,150.817474 770.290588,152.661804 770.247559,154.806061 
z"/>
<path fill="#1A1CAA" opacity="1.000000" stroke="none" 
	d="
M523.010742,203.002686 
	C518.369568,203.002686 514.225708,203.002686 509.859772,203.002686 
	C509.859772,174.585129 509.859772,146.492630 509.859772,117.338326 
	C524.105774,117.926727 538.330872,117.356636 552.176270,119.382027 
	C569.109680,121.859154 576.701660,139.463913 567.530457,152.429352 
	C565.765381,154.924622 563.101379,156.784042 560.614136,159.164520 
	C565.734009,161.807785 570.279785,165.323166 572.038818,171.537369 
	C576.094299,185.864151 568.268372,199.448318 553.362732,201.678864 
	C543.564575,203.145126 533.470032,202.630341 523.010742,203.002686 
M547.302124,188.073120 
	C553.665833,185.702164 555.745605,182.345245 555.100342,175.486282 
	C554.622803,170.410919 551.778992,166.680405 546.865723,166.306610 
	C540.494507,165.821869 534.058472,166.188263 527.647339,166.188263 
	C527.647339,173.978195 527.647339,181.307632 527.647339,188.334671 
	C534.265747,188.334671 540.387573,188.334671 547.302124,188.073120 
M552.659241,147.002670 
	C554.438354,137.690323 551.737122,133.270737 542.952515,132.313400 
	C537.924072,131.765411 532.787109,132.214157 527.552246,132.214157 
	C527.552246,139.364685 527.552246,146.055176 527.552246,153.004395 
	C533.252319,153.004395 538.660767,153.619843 543.828064,152.769592 
	C546.844177,152.273300 549.474731,149.433426 552.659241,147.002670 
z"/>
<path fill="#1B1DAA" opacity="1.000000" stroke="none" 
	d="
M938.029419,172.239426 
	C937.594604,182.571121 937.594604,192.643768 937.594604,202.799774 
	C931.259888,202.799774 925.651062,202.799774 919.838623,202.799774 
	C919.838623,174.517899 919.838623,146.439529 919.838623,118.809616 
	C933.780640,118.809616 947.613708,117.812866 961.231201,119.098495 
	C974.065613,120.310196 980.617371,127.754501 982.563599,139.266266 
	C984.501465,150.728836 979.961792,160.090164 969.391907,166.441589 
	C968.975525,166.691788 968.590393,166.993912 967.828003,167.524002 
	C973.888367,179.072098 979.940918,190.605286 986.442871,202.994797 
	C980.060913,202.994797 974.363525,203.167191 968.693298,202.851227 
	C967.541199,202.787033 966.129211,201.073502 965.454285,199.794556 
	C961.349304,192.016357 957.223694,184.236084 953.531433,176.259109 
	C951.983459,172.914902 950.184265,171.341385 946.442322,171.822510 
	C943.819519,172.159744 941.126099,171.947327 938.029419,172.239426 
M961.265686,135.184204 
	C953.908081,129.989059 945.671509,132.800461 937.573120,132.071747 
	C937.573120,140.767197 937.573120,148.926636 937.573120,157.420822 
	C942.555298,157.420822 947.138062,157.449631 951.720276,157.413132 
	C956.813232,157.372559 961.483337,156.087128 963.733398,151.063919 
	C966.125610,145.723190 965.708618,140.425552 961.265686,135.184204 
z"/>
<path fill="#1C1EAA" opacity="1.000000" stroke="none" 
	d="
M1276.328857,142.868088 
	C1276.338745,146.132980 1276.338745,148.916168 1276.338745,151.879456 
	C1287.655273,151.879456 1298.743652,151.879456 1310.292725,151.879456 
	C1310.292725,140.577805 1310.292725,129.502029 1310.292725,118.155762 
	C1316.320312,118.155762 1321.890503,118.155762 1327.734619,118.155762 
	C1327.734619,146.266418 1327.734619,174.329391 1327.734619,202.699524 
	C1322.179565,202.699524 1316.597900,202.699524 1310.411621,202.699524 
	C1310.411621,190.912231 1310.411621,179.032333 1310.411621,166.556488 
	C1299.504395,166.556488 1289.185059,166.463867 1278.874390,166.721878 
	C1277.992798,166.743927 1276.465454,169.080338 1276.432739,170.371872 
	C1276.207031,179.301910 1276.297852,188.239929 1276.287720,197.175354 
	C1276.285767,198.981827 1276.287476,200.788300 1276.287476,202.795090 
	C1270.279907,202.795090 1264.677856,202.795090 1258.851318,202.795090 
	C1258.851318,174.575180 1258.851318,146.485107 1258.851318,118.134941 
	C1264.604492,118.134941 1270.197510,118.134941 1276.318848,118.134941 
	C1276.318848,126.257088 1276.318848,134.321732 1276.328857,142.868088 
z"/>
<path fill="#1C1EAA" opacity="1.000000" stroke="none" 
	d="
M875.274170,171.126144 
	C873.751709,170.294876 871.887939,169.556793 871.779236,168.615875 
	C871.401733,165.349213 871.633423,162.012177 871.633423,158.410126 
	C882.717346,158.410126 893.467102,158.410126 904.605591,158.410126 
	C904.754456,159.284760 905.093079,160.364639 905.097717,161.445984 
	C905.137146,170.595154 905.218750,179.746765 905.023499,188.892029 
	C904.985596,190.670212 904.276733,192.895050 903.070557,194.118088 
	C885.185364,212.252380 848.355164,206.149033 839.277222,182.734711 
	C832.722961,165.829453 832.777100,148.114243 842.118286,131.696381 
	C854.336914,110.220978 891.125916,113.253784 899.823792,129.593521 
	C902.272339,134.193283 903.805908,139.280106 906.006531,144.759460 
	C899.393066,144.759460 893.946777,144.759460 888.218628,144.759460 
	C887.924866,144.014725 887.513794,143.138687 887.228577,142.223480 
	C884.962524,134.951416 881.103699,131.581284 874.356018,131.021439 
	C866.007507,130.328796 859.824280,133.104935 857.047119,139.942673 
	C851.710266,153.082916 851.494446,166.639252 856.895447,179.717575 
	C861.098633,189.895294 876.129517,193.580368 885.110657,187.277603 
	C886.234436,186.488953 887.104431,184.652191 887.211792,183.234406 
	C887.499817,179.432877 887.310059,175.595154 887.310059,171.126328 
	C883.284729,171.126328 879.511108,171.126328 875.274170,171.126144 
z"/>
<path fill="#1C1EAA" opacity="1.000000" stroke="none" 
	d="
M998.847290,133.891998 
	C1007.698547,120.073250 1021.865479,114.015015 1037.214722,117.267845 
	C1051.389893,120.271866 1062.774658,131.968552 1064.486328,147.387894 
	C1065.533447,156.821457 1065.563354,166.752808 1063.797729,176.032013 
	C1060.340942,194.198792 1046.575928,204.434921 1028.579712,204.123764 
	C1011.080688,203.821213 997.423401,192.388992 994.230835,174.548508 
	C991.767334,160.782166 991.826782,147.060593 998.847290,133.891998 
M1043.446045,181.827148 
	C1049.422119,169.324188 1049.173828,156.377213 1045.476440,143.469818 
	C1043.177979,135.445862 1036.919312,131.201935 1029.280640,131.139679 
	C1021.872314,131.079300 1015.558777,135.578079 1013.142822,143.578705 
	C1009.806396,154.627426 1009.806030,165.925705 1013.115784,176.960754 
	C1015.069885,183.475571 1019.342712,188.315933 1026.640747,189.371399 
	C1033.475342,190.359848 1039.033569,188.169601 1043.446045,181.827148 
z"/>
<path fill="#1C1EAA" opacity="1.000000" stroke="none" 
	d="
M685.281372,121.218880 
	C709.218262,108.756676 735.923950,122.464180 738.731873,148.894043 
	C739.682556,157.842010 739.541687,167.265427 737.816467,176.063095 
	C734.261780,194.190308 720.539734,204.445343 702.550964,204.123688 
	C685.058716,203.810898 671.055115,192.398270 668.389648,174.498184 
	C666.993591,165.123062 667.295898,155.236893 668.516418,145.799454 
	C669.862610,135.390823 675.750671,127.016922 685.281372,121.218880 
M719.491028,177.723267 
	C722.666199,166.785110 722.905457,155.740555 719.959290,144.780762 
	C717.590210,135.967834 711.307129,131.158875 703.193970,131.139359 
	C695.348389,131.120483 689.430237,135.826736 686.888062,144.620560 
	C683.969177,154.717361 684.089722,164.978134 686.588135,175.118073 
	C688.733765,183.826324 694.185303,188.782578 701.677246,189.612076 
	C709.300659,190.456161 714.961853,186.833496 719.491028,177.723267 
z"/>
<path fill="#1C1EAA" opacity="1.000000" stroke="none" 
	d="
M640.386536,198.472534 
	C613.858398,213.268738 586.562439,198.282745 584.193237,167.773880 
	C583.260132,155.758347 583.677979,143.744446 590.358337,133.023270 
	C597.851074,120.998230 608.995728,115.963112 622.898254,116.781853 
	C637.003601,117.612541 647.230591,124.660004 652.551025,137.585876 
	C658.740662,152.623413 658.784546,168.263535 652.464233,183.198929 
	C650.066956,188.863968 644.690002,193.268112 640.386536,198.472534 
M631.241577,135.181183 
	C620.810730,127.668892 608.955750,130.762466 604.599243,142.693405 
	C600.373413,154.266632 600.721741,166.253357 604.439880,177.890823 
	C606.904175,185.603607 613.541870,189.901794 620.593933,189.659637 
	C628.756836,189.379333 635.310974,184.769531 636.735962,176.115295 
	C638.145264,167.556519 638.478333,158.626495 637.758118,149.986496 
	C637.349365,145.083725 633.879517,140.436142 631.241577,135.181183 
z"/>
<path fill="#1C1EAA" opacity="1.000000" stroke="none" 
	d="
M1196.928467,132.067474 
	C1190.963257,132.032104 1185.486328,132.032104 1179.662842,132.032104 
	C1179.662842,127.417160 1179.662842,123.016891 1179.662842,118.118073 
	C1202.505005,118.118073 1225.373291,118.118073 1248.562622,118.118073 
	C1248.562622,122.557510 1248.562622,126.963356 1248.562622,131.906830 
	C1240.242798,131.906830 1231.867920,131.906830 1222.959961,131.906830 
	C1222.959961,155.800705 1222.959961,179.172180 1222.959961,202.770874 
	C1216.824707,202.770874 1211.228394,202.770874 1205.161133,202.770874 
	C1205.161133,179.433609 1205.161133,156.083664 1205.161133,132.102829 
	C1202.275513,132.102829 1199.846069,132.102829 1196.928467,132.067474 
z"/>
<path fill="#FAFAFD" opacity="1.000000" stroke="none" 
	d="
M546.905762,188.203888 
	C540.387573,188.334671 534.265747,188.334671 527.647339,188.334671 
	C527.647339,181.307632 527.647339,173.978195 527.647339,166.188263 
	C534.058472,166.188263 540.494507,165.821869 546.865723,166.306610 
	C551.778992,166.680405 554.622803,170.410919 555.100342,175.486282 
	C555.745605,182.345245 553.665833,185.702164 546.905762,188.203888 
z"/>
<path fill="#F9F9FD" opacity="1.000000" stroke="none" 
	d="
M552.468994,147.325302 
	C549.474731,149.433426 546.844177,152.273300 543.828064,152.769592 
	C538.660767,153.619843 533.252319,153.004395 527.552246,153.004395 
	C527.552246,146.055176 527.552246,139.364685 527.552246,132.214157 
	C532.787109,132.214157 537.924072,131.765411 542.952515,132.313400 
	C551.737122,133.270737 554.438354,137.690323 552.468994,147.325302 
z"/>
<path fill="#F9F9FD" opacity="1.000000" stroke="none" 
	d="
M961.536011,135.452789 
	C965.708618,140.425552 966.125610,145.723190 963.733398,151.063919 
	C961.483337,156.087128 956.813232,157.372559 951.720276,157.413132 
	C947.138062,157.449631 942.555298,157.420822 937.573120,157.420822 
	C937.573120,148.926636 937.573120,140.767197 937.573120,132.071747 
	C945.671509,132.800461 953.908081,129.989059 961.536011,135.452789 
z"/>
<path fill="#FCFCFE" opacity="1.000000" stroke="none" 
	d="
M1043.273682,182.154770 
	C1039.033569,188.169601 1033.475342,190.359848 1026.640747,189.371399 
	C1019.342712,188.315933 1015.069885,183.475571 1013.115784,176.960754 
	C1009.806030,165.925705 1009.806396,154.627426 1013.142822,143.578705 
	C1015.558777,135.578079 1021.872314,131.079300 1029.280640,131.139679 
	C1036.919312,131.201935 1043.177979,135.445862 1045.476440,143.469818 
	C1049.173828,156.377213 1049.422119,169.324188 1043.273682,182.154770 
z"/>
<path fill="#FCFCFE" opacity="1.000000" stroke="none" 
	d="
M719.322815,178.075745 
	C714.961853,186.833496 709.300659,190.456161 701.677246,189.612076 
	C694.185303,188.782578 688.733765,183.826324 686.588135,175.118073 
	C684.089722,164.978134 683.969177,154.717361 686.888062,144.620560 
	C689.430237,135.826736 695.348389,131.120483 703.193970,131.139359 
	C711.307129,131.158875 717.590210,135.967834 719.959290,144.780762 
	C722.905457,155.740555 722.666199,166.785110 719.322815,178.075745 
z"/>
<path fill="#FCFCFE" opacity="1.000000" stroke="none" 
	d="
M631.514954,135.427414 
	C633.879517,140.436142 637.349365,145.083725 637.758118,149.986496 
	C638.478333,158.626495 638.145264,167.556519 636.735962,176.115295 
	C635.310974,184.769531 628.756836,189.379333 620.593933,189.659637 
	C613.541870,189.901794 606.904175,185.603607 604.439880,177.890823 
	C600.721741,166.253357 600.373413,154.266632 604.599243,142.693405 
	C608.955750,130.762466 620.810730,127.668892 631.514954,135.427414 
z"/>
</svg>